<svg xmlns="http://www.w3.org/2000/svg" width="16" height="12" viewBox="0 0 16 12">
  <g fill="none" fill-rule="evenodd">
    <ellipse cx="8" cy="6" fill="#FDE8A0" rx="8" ry="6"/>
    <path fill="#000" d="M7.99511719,3.34716797 L9.03515625,3.34716797 L8.34667969,5.90332031 C7.94140422,7.38770273 7.73876953,8.23242085 7.73876953,8.4375 C7.73876953,8.5302739 7.76074197,8.60107397 7.8046875,8.64990234 C7.84863303,8.69873071 7.89746067,8.72314453 7.95117188,8.72314453 C8.0341801,8.72314453 8.13183538,8.6865238 8.24414062,8.61328125 C8.40527424,8.500976 8.71044697,8.21777571 9.15966797,7.76367188 L9.40136719,8.03466797 C8.41991697,9.05518088 7.69726794,9.56542969 7.23339844,9.56542969 C7.07714766,9.56542969 6.94409235,9.50561583 6.83422852,9.38598633 C6.72436469,9.26635682 6.66943359,9.09668079 6.66943359,8.87695312 C6.66943359,8.62304561 6.72314399,8.28369353 6.83056641,7.85888672 C6.39599392,8.35693608 5.85888992,8.79394343 5.21923828,9.16992188 C4.79443147,9.41894656 4.42578281,9.54345703 4.11328125,9.54345703 C3.94238196,9.54345703 3.80810596,9.48730525 3.71044922,9.375 C3.61279248,9.26269475 3.56396484,9.08447388 3.56396484,8.84033203 C3.56396484,8.64990139 3.58593728,8.44482532 3.62988281,8.22509766 C3.69335969,7.91747893 3.85449089,7.29980933 4.11328125,6.37207031 C4.44043132,5.19530662 4.60400391,4.48974727 4.60400391,4.25537109 C4.60400391,4.11865166 4.55517627,4.05029297 4.45751953,4.05029297 C4.36962847,4.05029297 4.25000076,4.09545853 4.09863281,4.18579102 C3.94726487,4.2761235 3.68847839,4.49462717 3.32226562,4.84130859 L3,4.58496094 C3.65430015,3.99902051 4.15356273,3.61450287 4.49780273,3.43139648 C4.84204274,3.2482901 5.11913958,3.15673828 5.32910156,3.15673828 C5.44628965,3.15673828 5.54150354,3.19946246 5.61474609,3.28491211 C5.68798865,3.37036176 5.72460938,3.50341707 5.72460938,3.68408203 C5.72460938,4.02099778 5.54882988,4.84862622 5.19726562,6.16699219 C4.88476406,7.35352156 4.72851562,8.02978433 4.72851562,8.19580078 C4.72851562,8.29834036 4.76147428,8.3862301 4.82739258,8.45947266 C4.89331088,8.53271521 4.96533164,8.56933594 5.04345703,8.56933594 C5.3168959,8.56933594 5.70507561,8.34350812 6.20800781,7.8918457 C6.71094001,7.44018329 7.04052656,6.92627241 7.19677734,6.35009766 L7.99511719,3.34716797 Z M13.0634766,0 C13.2148445,0 13.339355,0.0500483276 13.4370117,0.150146484 C13.5346685,0.250244641 13.5834961,0.378417187 13.5834961,0.534667969 C13.5834961,0.749512793 13.5090339,0.938719885 13.3601074,1.10229492 C13.2111809,1.26586996 13.0439462,1.34765625 12.8583984,1.34765625 C12.7119133,1.34765625 12.5898442,1.29638723 12.4921875,1.19384766 C12.3945308,1.09130808 12.3457031,0.95703208 12.3457031,0.791015625 C12.3457031,0.571287964 12.4165032,0.384522253 12.5581055,0.230712891 C12.6997077,0.0769035278 12.8681631,0 13.0634766,0 Z M10.1777344,4.84863281 L9.85546875,4.59960938 C10.3437524,4.06249731 10.7893046,3.68042106 11.1921387,3.45336914 C11.5949727,3.22631722 11.9379869,3.11279297 12.2211914,3.11279297 C12.3774422,3.11279297 12.4970699,3.14697231 12.5800781,3.21533203 C12.6630864,3.28369175 12.7045898,3.37646426 12.7045898,3.49365234 C12.7045898,3.63525461 12.5459,4.23583455 12.2285156,5.29541016 C11.7109349,7.02881726 11.4521484,8.07372869 11.4521484,8.43017578 C11.4521484,8.4985355 11.4692381,8.55590797 11.503418,8.60229492 C11.5375978,8.64868187 11.5742186,8.671875 11.6132813,8.671875 C11.769532,8.671875 12.1699187,8.36914365 12.8144531,7.76367188 L13.1000977,8.04199219 C12.431149,8.67187815 11.9428726,9.07470615 11.6352539,9.25048828 C11.3276352,9.42627041 11.0761729,9.51416016 10.8808594,9.51416016 C10.7099601,9.51416016 10.5744634,9.46044976 10.4743652,9.35302734 C10.3742671,9.24560493 10.3242188,9.09668064 10.3242188,8.90625 C10.3242188,8.29589539 10.690426,6.80421108 11.4228516,4.43115234 C11.4570314,4.31884709 11.4741211,4.21875044 11.4741211,4.13085938 C11.4741211,4.03320264 11.4301762,3.984375 11.3422852,3.984375 C11.2446284,3.984375 11.1335455,4.02343711 11.0090332,4.1015625 C10.8845209,4.17968789 10.607424,4.42870884 10.1777344,4.84863281 Z"/>
  </g>
</svg>
