<svg xmlns="http://www.w3.org/2000/svg" width="16" height="15" viewBox="0 0 16 15">
  <g fill="none" fill-rule="evenodd">
    <ellipse cx="8" cy="7" fill="#5BA7DC" rx="8" ry="6"/>
    <path fill="#000" d="M6.5234375,5.31640625 L8.27392578,5.31640625 C8.56201316,4.09569702 8.89159971,3.18750298 9.26269531,2.59179688 C9.63379092,1.99609077 10.1171845,1.52612477 10.7128906,1.18188477 C11.3085967,0.837644763 11.8701146,0.665527344 12.3974609,0.665527344 C12.695314,0.665527344 12.9199211,0.724120508 13.0712891,0.841308594 C13.222657,0.95849668 13.2983398,1.09765544 13.2983398,1.25878906 C13.2983398,1.40527417 13.2470708,1.52734326 13.1445312,1.625 C13.0419917,1.72265674 12.9077157,1.77148438 12.7416992,1.77148438 C12.5707999,1.77148438 12.2485375,1.72021536 11.7749023,1.61767578 C11.5405262,1.56884741 11.3574225,1.54443359 11.2255859,1.54443359 C10.9033187,1.54443359 10.6127943,1.74340621 10.3540039,2.14135742 C10.0952135,2.53930863 9.88769609,3.07763333 9.73144531,3.75634766 L9.36523438,5.31640625 L11.2988281,5.31640625 L11.1816406,5.83642578 L9.22607422,5.83642578 L8.06884766,10.5092773 C7.71240056,11.9301829 7.1423379,13.0068323 6.35864258,13.7392578 C5.57494725,14.4716833 4.72412568,14.8378906 3.80615234,14.8378906 C3.49853362,14.8378906 3.26538165,14.7780768 3.10668945,14.6584473 C2.94799725,14.5388178 2.86865234,14.3911142 2.86865234,14.215332 C2.86865234,14.0639641 2.92358344,13.9431157 3.03344727,13.8527832 C3.1433111,13.7624507 3.30078022,13.7172852 3.50585938,13.7172852 C3.60839895,13.7172852 3.75976462,13.7294921 3.95996094,13.7539062 C4.30175952,13.7978518 4.62890469,13.8198242 4.94140625,13.8198242 C5.4248071,13.8198242 5.77636609,13.7063 5.99609375,13.479248 C6.21582141,13.2521961 6.43554578,12.6967818 6.65527344,11.8129883 L8.14208984,5.83642578 L6.39160156,5.83642578 L6.5234375,5.31640625 Z"/>
  </g>
</svg>
