<svg xmlns="http://www.w3.org/2000/svg" width="16" height="12" viewBox="0 0 16 12">
  <g fill="none" fill-rule="evenodd">
    <ellipse cx="8" cy="6" fill="#CC88BA" rx="8" ry="6"/>
    <path fill="#000" d="M6.48974609,2.83300781 C6.92431858,2.83300781 7.26000858,2.91723549 7.49682617,3.08569336 C7.73364376,3.25415123 7.85205078,3.44824109 7.85205078,3.66796875 C7.85205078,3.79980535 7.80200245,3.91455029 7.7019043,4.01220703 C7.60180614,4.10986377 7.48095774,4.15869141 7.33935547,4.15869141 C7.24658157,4.15869141 7.16601597,4.13793966 7.09765625,4.09643555 C7.02929653,4.05493143 6.93164126,3.95117271 6.8046875,3.78515625 C6.56542849,3.46777185 6.32861445,3.30908203 6.09423828,3.30908203 C5.89404197,3.30908203 5.71704178,3.38598556 5.56323242,3.53979492 C5.40942306,3.69360428 5.33251953,3.88525276 5.33251953,4.11474609 C5.33251953,4.31494241 5.38134717,4.50903226 5.47900391,4.69702148 C5.57666064,4.88501071 5.82324021,5.18896274 6.21875,5.60888672 C6.7607449,6.18506147 7.03173828,6.73193101 7.03173828,7.24951172 C7.03173828,7.76709243 6.81201392,8.21996876 6.37255859,8.6081543 C5.93310327,8.99633983 5.36670269,9.19042969 4.67333984,9.19042969 C4.09228225,9.19042969 3.66015767,9.07202267 3.37695312,8.83520508 C3.09374858,8.59838749 2.95214844,8.30664236 2.95214844,7.95996094 C2.95214844,7.78906165 3.00585884,7.6474615 3.11328125,7.53515625 C3.22070366,7.422851 3.35253828,7.36669922 3.50878906,7.36669922 C3.6455085,7.36669922 3.76269482,7.41186478 3.86035156,7.50219727 C3.9580083,7.59252975 4.00683594,7.69872986 4.00683594,7.82080078 C4.00683594,7.86962915 4.00195317,7.93310508 3.9921875,8.01123047 C3.98730466,8.07470735 3.98486328,8.12841775 3.98486328,8.17236328 C3.98486328,8.3334969 4.05322197,8.47021428 4.18994141,8.58251953 C4.321778,8.69482478 4.50244026,8.75097656 4.73193359,8.75097656 C4.99560679,8.75097656 5.22753806,8.705811 5.42773438,8.61547852 C5.62793069,8.52514603 5.78417913,8.38842865 5.89648438,8.20532227 C6.00878962,8.02221588 6.06494141,7.84033293 6.06494141,7.65966797 C6.06494141,7.48388584 6.0124517,7.30810635 5.9074707,7.13232422 C5.80248971,6.95654209 5.56689636,6.66601765 5.20068359,6.26074219 C4.69286855,5.69433311 4.43896484,5.14990496 4.43896484,4.62744141 C4.43896484,4.14892339 4.63183401,3.7302264 5.01757812,3.37133789 C5.40332224,3.01244938 5.89403999,2.83300781 6.48974609,2.83300781 Z M12.0927734,7.41064453 L12.246582,7.83544922 C11.0844668,8.74853972 10.1030313,9.20507812 9.30224609,9.20507812 C8.87743928,9.20507812 8.56860448,9.05371245 8.37573242,8.75097656 C8.18286036,8.44824067 8.08642578,8.06494373 8.08642578,7.60107422 C8.08642578,6.82958599 8.29150186,6.03613689 8.70166016,5.22070312 C9.11181846,4.40526936 9.60986035,3.78027561 10.1958008,3.34570312 C10.6547875,3.00878738 11.1723604,2.84033203 11.7485352,2.84033203 C12.1098651,2.84033203 12.3832999,2.90869072 12.5688477,3.04541016 C12.7543955,3.18212959 12.847168,3.34814355 12.847168,3.54345703 C12.847168,3.69482498 12.7983403,3.81811476 12.7006836,3.91333008 C12.6030269,4.0085454 12.4663095,4.05615234 12.2905273,4.05615234 C12.1196281,4.05615234 11.8999037,3.97802812 11.6313477,3.82177734 C11.353026,3.65576089 11.1210947,3.57275391 10.9355469,3.57275391 C10.6962879,3.57275391 10.4582531,3.6813954 10.2214355,3.89868164 C9.98461796,4.11596788 9.75879014,4.53710625 9.54394531,5.16210938 C9.32910049,5.7871125 9.22167969,6.41454763 9.22167969,7.04443359 C9.22167969,7.5083031 9.31201082,7.86718623 9.49267578,8.12109375 C9.62451238,8.31640723 9.8100574,8.4140625 10.0493164,8.4140625 C10.6206083,8.4140625 11.3017539,8.07959319 12.0927734,7.41064453 Z"/>
  </g>
</svg>
