<svg xmlns="http://www.w3.org/2000/svg" width="16" height="15" viewBox="0 0 16 15">
  <g fill="none" fill-rule="evenodd">
    <ellipse cx="8" cy="7" fill="#7CB9E3" rx="8" ry="6"/>
    <path fill="#000" d="M6.06591797,4.98974609 C6.44254746,4.98974609 6.73347879,5.06274341 6.9387207,5.20874023 C7.14396261,5.35473706 7.24658203,5.52294827 7.24658203,5.71337891 C7.24658203,5.82763729 7.20320681,5.92708291 7.11645508,6.01171875 C7.02970334,6.09635459 6.92496806,6.13867188 6.80224609,6.13867188 C6.72184205,6.13867188 6.65201853,6.12068703 6.59277344,6.0847168 C6.53352835,6.04874656 6.44889378,5.95882233 6.33886719,5.81494141 C6.13150938,5.53987493 5.92627055,5.40234375 5.72314453,5.40234375 C5.54964106,5.40234375 5.3962409,5.46899347 5.26293945,5.60229492 C5.12963801,5.73559637 5.06298828,5.90169171 5.06298828,6.10058594 C5.06298828,6.27408941 5.10530557,6.44230062 5.18994141,6.60522461 C5.27457725,6.7681486 5.48827954,7.0315737 5.83105469,7.39550781 C6.3007836,7.89485927 6.53564453,8.36881286 6.53564453,8.81738281 C6.53564453,9.26595276 6.34521675,9.65844558 5.96435547,9.99487305 C5.58349419,10.3313005 5.09261368,10.4995117 4.49169922,10.4995117 C3.98811597,10.4995117 3.613608,10.3968923 3.36816406,10.1916504 C3.12272013,9.98640848 3,9.7335627 3,9.43310547 C3,9.28499275 3.04654901,9.16227262 3.13964844,9.06494141 C3.23274786,8.96761019 3.34700453,8.91894531 3.48242188,8.91894531 C3.60091205,8.91894531 3.70247354,8.9580888 3.78710938,9.03637695 C3.87174521,9.1146651 3.9140625,9.2067052 3.9140625,9.3125 C3.9140625,9.35481792 3.90983077,9.40983039 3.90136719,9.47753906 C3.8971354,9.53255236 3.89501953,9.57910137 3.89501953,9.6171875 C3.89501953,9.75683664 3.95426373,9.87532503 4.07275391,9.97265625 C4.18701229,10.0699875 4.34358625,10.1186523 4.54248047,10.1186523 C4.77099724,10.1186523 4.97200434,10.0795089 5.14550781,10.0012207 C5.31901128,9.92293255 5.4544266,9.80444415 5.55175781,9.64575195 C5.64908903,9.48705975 5.69775391,9.32942787 5.69775391,9.17285156 C5.69775391,9.02050705 5.65226282,8.86816482 5.5612793,8.71582031 C5.47029577,8.5634758 5.26611487,8.31168795 4.94873047,7.96044922 C4.5086241,7.46956135 4.28857422,6.99772362 4.28857422,6.54492188 C4.28857422,6.13020626 4.4557275,5.76733554 4.79003906,5.45629883 C5.12435063,5.14526212 5.54963935,4.98974609 6.06591797,4.98974609 Z M7.85595703,4.65087891 L9.60644531,4.65087891 C9.89453269,3.43016968 10.2241192,2.52197563 10.5952148,1.92626953 C10.9663104,1.33056343 11.4497041,0.860597424 12.0454102,0.516357422 C12.6411163,0.172117419 13.2026341,0 13.7299805,0 C14.0278335,0 14.2524406,0.0585931641 14.4038086,0.17578125 C14.5551765,0.292969336 14.6308594,0.432128101 14.6308594,0.593261719 C14.6308594,0.739746826 14.5795904,0.861815918 14.4770508,0.959472656 C14.3745112,1.05712939 14.2402352,1.10595703 14.0742188,1.10595703 C13.9033195,1.10595703 13.5810571,1.05468801 13.1074219,0.952148438 C12.8730457,0.903320068 12.6899421,0.87890625 12.5581055,0.87890625 C12.2358382,0.87890625 11.9453138,1.07787887 11.6865234,1.47583008 C11.4277331,1.87378129 11.2202156,2.41210598 11.0639648,3.09082031 L10.6977539,4.65087891 L12.6313477,4.65087891 L12.5141602,5.17089844 L10.5585938,5.17089844 L9.40136719,9.84375 C9.04492009,11.2646555 8.47485743,12.3413049 7.69116211,13.0737305 C6.90746678,13.806156 6.05664521,14.1723633 5.13867188,14.1723633 C4.83105315,14.1723633 4.59790118,14.1125494 4.43920898,13.9929199 C4.28051678,13.8732904 4.20117188,13.7255868 4.20117188,13.5498047 C4.20117188,13.3984367 4.25610297,13.2775883 4.3659668,13.1872559 C4.47583063,13.0969234 4.63329976,13.0517578 4.83837891,13.0517578 C4.94091848,13.0517578 5.09228416,13.0639647 5.29248047,13.0883789 C5.63427905,13.1323244 5.96142422,13.1542969 6.27392578,13.1542969 C6.75732664,13.1542969 7.10888562,13.0407726 7.32861328,12.8137207 C7.54834094,12.5866688 7.76806531,12.0312544 7.98779297,11.1474609 L9.47460938,5.17089844 L7.72412109,5.17089844 L7.85595703,4.65087891 Z"/>
  </g>
</svg>
