<svg id="Layer_1" data-name="Layer 1" xmlns="http://www.w3.org/2000/svg" viewBox="0 0 285.44 115.92"><defs><style>.cls-1{fill:#fff;}.cls-2{fill:#e43730;}</style></defs><title>KEEP LOGO 04</title><path class="cls-1" d="M121.74,55.7c0-18.5-11.7-30.4-31.3-30.4-17.3,0-29.1,9.7-31.5,26.2L75,86.9a37.59,37.59,0,0,0,15.9,3.3c17.7,0,27.6-8.1,30.3-21.5h-20.9c-1.3,3.2-3.9,4.6-9,4.6-7.7,0-11.5-4.4-12.4-12.8h42.8V55.7Zm-42-7.6c1.6-5.2,4.6-8.1,10.7-8.1,5.6,0,9,2.7,10.1,8.1Z"/><path class="cls-1" d="M46,88.6,33.54,62.3h-3.3l-7.1,8.2V88.6H2.24V2.2H23V47.1L42,26.8h22.7L47.34,45.9l20.1,42.7Z"/><path class="cls-1" d="M7.54,100.7c2.7,0,4.1,1.4,4.1,3.7s-1.5,3.6-4.1,3.6h-4v5.2H2.34V100.7Zm-.2,6.2c2.3,0,3.2-1,3.2-2.6s-.8-2.6-3.2-2.6H3.54v5.2h3.8Z"/><path class="cls-1" d="M18,105.4h-.7a2.79,2.79,0,0,0-2.9,3.1v4.6h-1.1v-8.8h1.1v1.1h.4a3.34,3.34,0,0,1,2.6-1.1H18Z"/><path class="cls-1" d="M26.84,108.6H20v.2c0,2.2,1.2,3.6,3.1,3.6a2.3,2.3,0,0,0,2.5-1.6h1.1c-.3,1.4-1.5,2.5-3.6,2.5-2.7,0-4.2-2.1-4.2-4.7s1.5-4.5,4.2-4.5a3.8,3.8,0,0,1,3.8,4.1v.4Zm-6.7-1h5.6a2.65,2.65,0,0,0-2.7-2.5A2.94,2.94,0,0,0,20.14,107.6Z"/><path class="cls-1" d="M27.94,110.8H29c.2,1.1,1.1,1.7,2.6,1.7s2.5-.6,2.5-1.7c0-.9-.5-1.4-1.7-1.6-.4-.1-1.5-.2-2.1-.4a2.09,2.09,0,0,1-2-2.1c0-1.4,1.1-2.5,3.4-2.5,2,0,3.2,1,3.4,2.4H34c-.1-1-1.1-1.5-2.3-1.5-1.4,0-2.2.5-2.2,1.4s.5,1.1,1.5,1.3a2.77,2.77,0,0,0,.9.1l1.1.2c1.5.3,2.4,1,2.4,2.5s-1.2,2.7-3.5,2.7C29.34,113.4,28.24,112.4,27.94,110.8Z"/><path class="cls-1" d="M44.34,108.6h-6.8v.2c0,2.2,1.2,3.6,3.1,3.6a2.3,2.3,0,0,0,2.5-1.6h1.1c-.3,1.4-1.5,2.5-3.6,2.5-2.7,0-4.2-2.1-4.2-4.7s1.5-4.5,4.2-4.5a3.8,3.8,0,0,1,3.8,4.1v.4Zm-6.7-1h5.6a2.65,2.65,0,0,0-2.7-2.5A2.94,2.94,0,0,0,37.64,107.6Z"/><path class="cls-1" d="M50.94,105.4h-.7a2.79,2.79,0,0,0-2.9,3.1v4.6h-1.1v-8.8h1.1v1.1h.4a3.34,3.34,0,0,1,2.6-1.1h.6v1.1Z"/><path class="cls-1" d="M52,104.4h1.1l2.7,7.7h.7l2.6-7.7h1.2l-3.1,8.8H55Z"/><path class="cls-1" d="M67.24,112.2h-.4a3.51,3.51,0,0,1-2.8,1.2,2.91,2.91,0,0,1-3.2-2.8c0-1.4.9-2.9,3.3-2.9h3.1v-.5c0-1.1-.7-2-2.4-2-1.5,0-2.2.6-2.3,1.5h-1.1c.1-1.6,1.5-2.5,3.4-2.5,2.1,0,3.5,1.1,3.5,2.9v6.1h-1.1Zm0-2.5v-1h-2.8c-1.6,0-2.5.7-2.5,1.9s.9,1.9,2.2,1.9A3,3,0,0,0,67.24,109.7Z"/><path class="cls-1" d="M82.34,107.5v5.7h-1.1v-5.7c0-1.5-.6-2.3-1.8-2.3-1.5,0-2.4,1.1-2.4,2.8v5.2h-1.1v-5.7c0-1.5-.7-2.3-1.8-2.3-1.6,0-2.4,1.4-2.4,3.1v4.9h-1.1v-8.8h1.1v.9h.4a2.37,2.37,0,0,1,2.3-1.1,2.45,2.45,0,0,1,2.3,1.2h.4a2.91,2.91,0,0,1,2.5-1.2C81.54,104.2,82.34,105.5,82.34,107.5Z"/><path class="cls-1" d="M92.54,108.8c0,2.5-1.5,4.6-4.2,4.6s-4.2-2.1-4.2-4.6,1.5-4.6,4.2-4.6S92.54,106.3,92.54,108.8Zm-1.1,0c0-1.8-1-3.6-3.1-3.6s-3.1,1.8-3.1,3.6,1,3.6,3.1,3.6S91.44,110.6,91.44,108.8Z"/><path class="cls-1" d="M93.64,110.8h1.1c.2,1.1,1.1,1.7,2.6,1.7s2.5-.6,2.5-1.7c0-.9-.5-1.4-1.7-1.6-.4-.1-1.5-.2-2.1-.4a2.09,2.09,0,0,1-2-2.1c0-1.4,1.1-2.5,3.4-2.5,2,0,3.2,1,3.4,2.4h-1.1c-.1-1-1.1-1.5-2.3-1.5-1.4,0-2.2.5-2.2,1.4s.5,1.1,1.5,1.3a2.77,2.77,0,0,0,.9.1l1.1.2c1.5.3,2.4,1,2.4,2.5s-1.2,2.7-3.5,2.7C95,113.4,93.84,112.4,93.64,110.8Z"/><path class="cls-1" d="M114.94,108.8c0,2.5-1.5,4.6-4.2,4.6s-4.2-2.1-4.2-4.6,1.5-4.6,4.2-4.6S114.94,106.3,114.94,108.8Zm-1.1,0c0-1.8-1-3.6-3.1-3.6s-3.1,1.8-3.1,3.6,1,3.6,3.1,3.6S113.84,110.6,113.84,108.8Z"/><path class="cls-1" d="M122.94,105.4v7.8h-1.1v-7.8h-1.6v-1h1.6v-1.1c0-1.9.9-2.8,2.8-2.8h.7v1h-.7c-1.3,0-1.7.8-1.7,1.8v1.2h2.5v1h-2.5Z"/><path class="cls-1" d="M127.84,104.4v5.4c0,1.8.8,2.6,2.4,2.6a3,3,0,0,0,2.9-3.2v-4.8h1.1v8.8h-1.1v-1h-.4a3.3,3.3,0,0,1-2.7,1.2,3.15,3.15,0,0,1-3.4-3.4v-5.7h1.2Z"/><path class="cls-1" d="M140.84,104.4v1h-2.3v5.3c0,1,.4,1.5,1.7,1.5h.6v1h-.6c-1.9,0-2.8-.6-2.8-2.4v-5.4h-1.6v-1h1.6v-2.7h1.1v2.7h2.3Z"/><path class="cls-1" d="M143.74,104.4v5.4c0,1.8.8,2.6,2.4,2.6a3,3,0,0,0,2.9-3.2v-4.8h1.1v8.8H149v-1h-.4a3.3,3.3,0,0,1-2.7,1.2,3.15,3.15,0,0,1-3.4-3.4v-5.7h1.2Z"/><path class="cls-1" d="M157.24,105.4h-.7a2.79,2.79,0,0,0-2.9,3.1v4.6h-1.1v-8.8h1.1v1.1h.4a3.34,3.34,0,0,1,2.6-1.1h.6v1.1Z"/><path class="cls-1" d="M166.64,108.8c0,2.5-1.5,4.6-4.2,4.6s-4.2-2.1-4.2-4.6,1.5-4.6,4.2-4.6S166.64,106.3,166.64,108.8Zm-1.1,0c0-1.8-1-3.6-3.1-3.6s-3.1,1.8-3.1,3.6,1,3.6,3.1,3.6S165.54,110.6,165.54,108.8Z"/><path class="cls-1" d="M182.24,68.6h-14.8c-1.3,3.2-3.9,4.6-9,4.6-7.7,0-11.5-4.4-12.4-12.8h36.2v-25c-5.3-6.5-13.8-10.2-24.7-10.2-19.4,0-32,12.2-32,32.4S138.34,90,157.94,90c11.1,0,19.1-3.2,24.2-8.9V68.6ZM157.54,40c5.6,0,9,2.7,10.1,8.1h-20.8C148.44,42.8,151.54,40,157.54,40Z"/><path class="cls-1" d="M214.44,83.4h-3.3v29.8h-20.8V26.8h20V32h3.3c3.3-4.2,8.1-6.8,16.2-6.8,16.2,0,25.7,13.5,25.7,32.4S245.64,90,229.84,90C222.14,90.1,217.64,87.5,214.44,83.4Zm-4.2-25.7c0,8.3,3.8,15.6,12.5,15.6s12.1-7.3,12.1-15.6-3.5-15.6-12.1-15.6S210.24,49.4,210.24,57.7Z"/><path class="cls-2" d="M277.74,69.1a12.06,12.06,0,0,1,4.2,4.2,11,11,0,0,1,1.6,5.6,10.7,10.7,0,0,1-1.6,5.7,12.06,12.06,0,0,1-4.2,4.2,10.26,10.26,0,0,1-5.6,1.5,11.57,11.57,0,0,1-5.7-1.5,11.29,11.29,0,0,1-4.2-4.2,10.6,10.6,0,0,1-1.5-5.7,10.93,10.93,0,0,1,1.5-5.6,12.06,12.06,0,0,1,4.2-4.2,10.7,10.7,0,0,1,5.7-1.6A12.46,12.46,0,0,1,277.74,69.1Z"/></svg>