<svg xmlns="http://www.w3.org/2000/svg" width="16" height="13" viewBox="0 0 16 13">
  <g fill="none" fill-rule="evenodd">
    <ellipse cx="8" cy="7" fill="#ED899E" rx="8" ry="6"/>
    <path fill="#000" d="M7.9140625,9.48388672 L8.11914062,9.76220703 C7.46484048,10.3139676 6.97900549,10.6801749 6.66162109,10.8608398 C6.22216577,11.1098645 5.87548955,11.234375 5.62158203,11.234375 C5.50439395,11.234375 5.40918005,11.2014163 5.3359375,11.135498 C5.26269495,11.0695797 5.22607422,10.9951176 5.22607422,10.9121094 C5.22607422,10.8291011 5.25292942,10.6923838 5.30664062,10.5019531 L5.56298828,9.60839844 C4.97704785,10.2382844 4.48877148,10.6655262 4.09814453,10.8901367 C3.70751758,11.1147472 3.35595859,11.2270508 3.04345703,11.2270508 C2.78466667,11.2270508 2.56738369,11.1135265 2.39160156,10.8864746 C2.21581943,10.6594227 2.12792969,10.3261741 2.12792969,9.88671875 C2.12792969,9.19335591 2.36596442,8.39624474 2.84204102,7.49536133 C3.31811761,6.59447792 3.84789747,5.92798068 4.43139648,5.49584961 C5.0148955,5.06371854 5.54833743,4.84765625 6.03173828,4.84765625 C6.13916069,4.84765625 6.30029189,4.86474592 6.51513672,4.89892578 C6.74463005,3.94677258 6.96435442,3.25219945 7.17431641,2.81518555 C7.38427839,2.37817164 7.65527178,2.00097815 7.98730469,1.68359375 C8.3193376,1.36620935 8.69897247,1.12085048 9.1262207,0.947509766 C9.55346893,0.774169055 9.95263486,0.6875 10.3237305,0.6875 C10.5190439,0.6875 10.6752924,0.738769019 10.7924805,0.841308594 C10.9096686,0.943848169 10.9682617,1.07324141 10.9682617,1.22949219 C10.9682617,1.38086013 10.9145513,1.50414991 10.8071289,1.59936523 C10.6997065,1.69458055 10.5532236,1.7421875 10.3676758,1.7421875 C10.2456049,1.7421875 10.0185563,1.71777368 9.68652344,1.66894531 C9.35449053,1.62011694 9.12744202,1.59570312 9.00537109,1.59570312 C8.8344718,1.59570312 8.68432682,1.64819283 8.55493164,1.75317383 C8.42553646,1.85815482 8.30224668,2.08398264 8.18505859,2.43066406 C8.1069332,2.65039172 7.92871233,3.35106831 7.65039062,4.53271484 L6.61035156,8.95654297 C6.48828064,9.47900652 6.42724609,9.82568274 6.42724609,9.99658203 C6.42724609,10.1821298 6.49804617,10.2749023 6.63964844,10.2749023 C6.7275395,10.2749023 6.83007754,10.2431644 6.94726562,10.1796875 C7.11328208,10.0869136 7.43554448,9.85498232 7.9140625,9.48388672 Z M6.36132812,5.70458984 C5.97070117,5.61669878 5.69482502,5.57275391 5.53369141,5.57275391 C5.20654133,5.57275391 4.88672031,5.70092645 4.57421875,5.95727539 C4.26171719,6.21362433 3.96020653,6.71044553 3.66967773,7.44775391 C3.37914894,8.18506228 3.23388672,8.8271457 3.23388672,9.37402344 C3.23388672,9.62304812 3.30102472,9.8269035 3.43530273,9.9855957 C3.56958075,10.1442879 3.72216711,10.2236328 3.89306641,10.2236328 C4.09814556,10.2236328 4.33251821,10.1333017 4.59619141,9.95263672 C4.97216985,9.68408069 5.27001843,9.35693552 5.48974609,8.97119141 C5.62158269,8.72704956 5.79980356,8.12891101 6.02441406,7.17675781 L6.36132812,5.70458984 Z M12.8945312,9.41064453 L13.0483398,9.83544922 C11.8862247,10.7485397 10.9047892,11.2050781 10.1040039,11.2050781 C9.67919709,11.2050781 9.37036229,11.0537125 9.17749023,10.7509766 C8.98461818,10.4482407 8.88818359,10.0649437 8.88818359,9.60107422 C8.88818359,8.82958599 9.09325967,8.03613689 9.50341797,7.22070312 C9.91357627,6.40526936 10.4116182,5.78027561 10.9975586,5.34570312 C11.4565453,5.00878738 11.9741182,4.84033203 12.550293,4.84033203 C12.9116229,4.84033203 13.1850577,4.90869072 13.3706055,5.04541016 C13.5561533,5.18212959 13.6489258,5.34814355 13.6489258,5.54345703 C13.6489258,5.69482498 13.6000981,5.81811476 13.5024414,5.91333008 C13.4047847,6.0085454 13.2680673,6.05615234 13.0922852,6.05615234 C12.9213859,6.05615234 12.7016615,5.97802813 12.4331055,5.82177734 C12.1547838,5.65576089 11.9228525,5.57275391 11.7373047,5.57275391 C11.4980457,5.57275391 11.2600109,5.6813954 11.0231934,5.89868164 C10.7863758,6.11596788 10.5605479,6.53710625 10.3457031,7.16210938 C10.1308583,7.7871125 10.0234375,8.41454763 10.0234375,9.04443359 C10.0234375,9.5083031 10.1137686,9.86718623 10.2944336,10.1210938 C10.4262702,10.3164072 10.6118152,10.4140625 10.8510742,10.4140625 C11.4223661,10.4140625 12.1035117,10.0795932 12.8945312,9.41064453 Z"/>
  </g>
</svg>
