<svg xmlns="http://www.w3.org/2000/svg" width="16" height="12" viewBox="0 0 16 12">
  <g fill="none" fill-rule="evenodd">
    <ellipse cx="8" cy="6" fill="#F1A1B1" rx="8" ry="6"/>
    <path fill="#000" d="M9.78613281,8.79638672 L9.99121094,9.07470703 C9.33691079,9.6264676 8.85107581,9.99267488 8.53369141,10.1733398 C8.09423608,10.4223645 7.74755986,10.546875 7.49365234,10.546875 C7.37646426,10.546875 7.28125037,10.5139163 7.20800781,10.447998 C7.13476526,10.3820797 7.09814453,10.3076176 7.09814453,10.2246094 C7.09814453,10.1416011 7.12499973,10.0048838 7.17871094,9.81445312 L7.43505859,8.92089844 C6.84911816,9.5507844 6.3608418,9.97802622 5.97021484,10.2026367 C5.57958789,10.4272472 5.22802891,10.5395508 4.91552734,10.5395508 C4.65673699,10.5395508 4.439454,10.4260265 4.26367188,10.1989746 C4.08788975,9.97192269 4,9.63867407 4,9.19921875 C4,8.50585591 4.23803473,7.70874474 4.71411133,6.80786133 C5.19018793,5.90697792 5.71996779,5.24048068 6.3034668,4.80834961 C6.88696581,4.37621854 7.42040774,4.16015625 7.90380859,4.16015625 C8.01123101,4.16015625 8.17236221,4.17724592 8.38720703,4.21142578 C8.61670037,3.25927258 8.83642473,2.56469945 9.04638672,2.12768555 C9.25634871,1.69067164 9.52734209,1.31347815 9.859375,0.99609375 C10.1914079,0.678709351 10.5710428,0.433350476 10.998291,0.260009766 C11.4255392,0.0866690552 11.8247052,0 12.1958008,0 C12.3911143,0 12.5473627,0.0512690186 12.6645508,0.153808594 C12.7817389,0.256348169 12.840332,0.385741406 12.840332,0.541992188 C12.840332,0.693360132 12.7866216,0.816649915 12.6791992,0.911865234 C12.5717768,1.00708055 12.4252939,1.0546875 12.2397461,1.0546875 C12.1176752,1.0546875 11.8906267,1.03027368 11.5585938,0.981445312 C11.2265608,0.932616943 10.9995123,0.908203125 10.8774414,0.908203125 C10.7065421,0.908203125 10.5563971,0.960692834 10.427002,1.06567383 C10.2976068,1.17065482 10.174317,1.39648264 10.0571289,1.74316406 C9.97900352,1.96289172 9.80078264,2.66356831 9.52246094,3.84521484 L8.48242188,8.26904297 C8.36035095,8.79150652 8.29931641,9.13818274 8.29931641,9.30908203 C8.29931641,9.49462983 8.37011648,9.58740234 8.51171875,9.58740234 C8.59960981,9.58740234 8.70214785,9.55566438 8.81933594,9.4921875 C8.98535239,9.3994136 9.30761479,9.16748232 9.78613281,8.79638672 Z M8.23339844,5.01708984 C7.84277148,4.92919878 7.56689534,4.88525391 7.40576172,4.88525391 C7.07861165,4.88525391 6.75879062,5.01342645 6.44628906,5.26977539 C6.1337875,5.52612433 5.83227684,6.02294553 5.54174805,6.76025391 C5.25121925,7.49756228 5.10595703,8.1396457 5.10595703,8.68652344 C5.10595703,8.93554812 5.17309503,9.1394035 5.30737305,9.2980957 C5.44165106,9.4567879 5.59423743,9.53613281 5.76513672,9.53613281 C5.97021587,9.53613281 6.20458853,9.44580168 6.46826172,9.26513672 C6.84424016,8.99658069 7.14208875,8.66943552 7.36181641,8.28369141 C7.493653,8.03954956 7.67187388,7.44141101 7.89648437,6.48925781 L8.23339844,5.01708984 Z"/>
  </g>
</svg>
