<svg id="Layer_1" xmlns="http://www.w3.org/2000/svg" viewBox="0 0 337 70.2"><style>.st0{fill:url(#Gold_2_)}.st1{fill:#272425}.st2{fill:url(#Red_2_)}.st3{fill:#FFF}.st4{fill:url(#Gold_3_)}.st5{fill:url(#Red_3_)}.st6{enable-background:new}.st7{fill:#e6e6e6}</style><radialGradient id="Gold_2_" cx="-2414.459" cy="489.126" r="6.393" gradientTransform="matrix(4.4964 0 0 4.2933 10880.425 -2064.666)" gradientUnits="userSpaceOnUse"><stop offset=".166" stop-color="#FFF"/><stop offset=".865" stop-color="#c9ab80"/></radialGradient><path id="Gold" class="st0" d="M45.7 26.1c-.4-3.4-1.2-6.5-2.2-9.1 0-.1-.2-.4-.2-.4-.9-2-2.1-3.8-3.4-5.1-2.4-2.5-5.3-3.9-8.6-3.9h-.1c-.5-1.1-2-1.9-3.2-2.1 0 0-.8-2.9-3.9-2.9s-3.9 2.9-3.9 2.9c-1.3.2-2.6.9-3.2 2.1h-.1c-3.2 0-6.2 1.4-8.6 3.9-1.3 1.4-2.4 3.1-3.4 5.1l-.2.4c-1.1 2.6-2 5.6-2.2 9.1-1.8 17 6.2 37.8 20.6 41 .2.4.8.9 1 .9s.8-.6 1-.9c14.4-3.3 22.4-24 20.6-41z"/><path id="Crest" class="st1" d="M45.7 26.1c-.4-3.4-1.2-6.5-2.2-9.1 0-.1-.2-.4-.2-.4-.9-2-2.1-3.8-3.4-5.1-2.4-2.5-5.3-3.9-8.6-3.9h-.1c-.5-1.1-2-1.9-3.2-2.1 0 0-.8-2.9-3.9-2.9s-3.9 2.9-3.9 2.9c-1.3.2-2.6.9-3.2 2.1h-.1c-3.2 0-6.2 1.4-8.6 3.9-1.3 1.4-2.4 3.1-3.4 5.1l-.2.4c-1.1 2.6-2 5.6-2.2 9.1-1.8 17 6.2 37.8 20.6 41 .2.4.8.9 1 .9s.8-.6 1-.9c14.4-3.3 22.4-24 20.6-41zm-.6.1v.6c-.7 0-1.4.1-2 .4-.4-5.2-2-9.6-4.2-12.6.4-.5 1-.9 1.7-1.2 2.3 3 3.9 7.4 4.5 12.8zm-28-12.3c-.5.1-.5.9-.4 1.5s.4 1.2.8 1.2c.7-.1 1.3-1.5 1.2-2.6-.1-1.5-.9-1.9-1.5-1.9-.9 0-1.5 1.3-1.5 3s.6 3 1.5 3c.4 0 6.9.9 6.3-4.6-.2-2.6-1.9-4.5-3.4-5.3 1.5-.9 3.4.6 3.9 2.4.1.4.4.4.4 0 .6-1.9 2.2-3.2 3.7-2.4-1.5.9-3 2.8-3.2 5.3-.4 5.6 6.2 4.7 6.4 4.6.9 0 1.5-1.3 1.5-3s-.7-3-1.5-3c-.5 0-1.4.4-1.5 1.9 0 1.1.5 2.5 1.2 2.6.4 0 .7-.6.8-1.2.1-.6 0-1.4-.4-1.5-.2 0-.4 0-.4.2 0 .1.4.4.2 1 0 .9-1 .5-.9-1 .1-1.3.9-1.2.9-1.2.4 0 1 .8 1 2.2 0 1.3-.7 2.8-2 2-1-.8-1.5-2.5-1.2-3.8.1-.6.7-2.2 2.5-2.2 2.5 0 4.9 1.2 6.8 3.6-.2.6-1.2 2.9-5.5 5.2-1.5-.9-3.1-1.2-4.5-1.2-2.3 0-3.1.7-4.1.7-1 0-1.8-.7-4.1-.7-1.5 0-3.2.4-4.5 1.2-4.2-2.3-5.2-4.5-5.5-5.2C12 12.3 14.4 11 17 11c1.8 0 2.3 1.6 2.4 2.2.2 1.3-.1 3.1-1.2 3.8-1.3.7-2-.7-2-2 0-1.5.6-2.2 1-2.2 0 0 .8-.1.9 1.3.1 1.5-.9 2-.9 1 0-.6.4-.9.2-1 0-.1-.2-.2-.3-.2zm21.6 1.3c2.1 2.9 3.7 7.2 3.9 12.7-.8.4-2.4 1.1-4.5 1.3-.5-2.8-1.7-6.7-4.7-8.8 3.7-2.2 4.9-4.3 5.3-5.2zm-23.7 5c-3 2.1-4.2 6-4.7 8.8-2.1-.2-3.8-.9-4.5-1.3.4-5.5 1.8-9.8 3.9-12.6.4 1 1.5 3.1 5.3 5.1zm-4.7 9.2c-.2 1-.2 1.9-.2 2.5v2.6c0 .2 0 .4.1.5v.1c.1 1.7.4 3.4.8 5.1v.2c.7 3 1.6 5.2 2.1 6 .7 1.4 1.4 2.6 2.1 3.8-1.4 1.2-3.4 1.6-4.1 1.8C7.4 45.1 5.6 36.2 6 28.2c.6.5 2.2 1.1 4.3 1.2zM15 50.7c2.4 3.9 4.8 6.3 6.6 7.5-.7 1.6-2.2 2.8-2.8 3.2-3.2-2-5.8-5.2-7.9-9.1.9 0 2.8-.5 4.1-1.6zm7 7.8c1 .7 2.1 1.1 2.1 1.1s1.1-.4 2.1-1.1c.7 1.5 2.1 2.8 2.8 3.2-.9.6-1.9 1-2.8 1.4V63c-.2-1-1.6-1.2-2.1-1.2S22.2 62 22 63v.1c-.9-.4-1.9-.8-2.8-1.3.7-.6 2.1-1.7 2.8-3.3zm4.6-.3c1.8-1.3 4.2-3.7 6.6-7.5 1.3 1.1 3.1 1.6 4.1 1.8-2.1 3.9-4.7 7.1-7.8 9.1-.6-.5-2.2-1.7-2.9-3.4zm6.9-8c.7-1.1 1.4-2.4 2-3.7.4-.8 1.4-3 2.1-6l.1-.2c.4-1.7.6-3.4.8-5.1v-.1-.5V32c0-.6-.1-1.5-.2-2.5 2.1-.2 3.7-.8 4.5-1.2.2 8.1-1.5 16.9-5.1 23.8-1-.2-2.9-.7-4.2-1.9zM31.1 8.3c3.7 0 6.9 1.7 9.2 4.7-.6.2-1.2.7-1.7 1.2-2-2.4-4.3-3.8-7.1-3.8-1.7 0-2.8 1.2-3.2 2.8-.2 1.3 0 2.8.9 3.8.4.4.2.6.1.6-1.1 0-4.2-.6-3.9-4.1.2-2.2 1.4-3.7 2.6-4.5 1.2-.6 2.6-.7 3.1-.7zm-6.9-5.1c2.5 0 3.1 2.3 3.1 2.4-.2 0-.4 0-.5.1l-.4.1c-.9.2-1.6.9-2.1 1.6 0 0 0 .1-.1.1l-.1-.1c-.4-.8-1.2-1.3-2.1-1.6l-.4-.1c-.2 0-.4 0-.5-.1 0 0 .5-2.4 3.1-2.4zM20.8 6c1.5 0 2.6.9 3.1 2.1.1.4.2.4.4 0C24.7 6.8 26 6 27.4 6c1.2 0 2.3.7 2.9 1.7-.4.1-.9.2-1.4.4-.8-.7-1.6-.7-2.1-.5-1.2.4-2.1 1.5-2.6 2.5-.5-.9-1.5-2.1-2.6-2.5-.5-.2-1.4-.2-2.1.5-.4-.2-.9-.2-1.4-.4.4-1 1.5-1.7 2.7-1.7zm-3.6 2.3c.5 0 1.9.1 3.1.8 1.3.9 2.4 2.3 2.6 4.5.2 3.4-3.4 3.9-4.1 3.9-.1 0-.2-.1.2-.4.9-1 1.1-2.6.9-3.8-.4-1.5-1.5-2.8-3.2-2.8-2.8 0-5.1 1.4-7.1 3.8-.4-.5-1-.9-1.7-1.2 2.5-3.1 5.6-4.8 9.3-4.8zM3.3 26.2c.6-5.4 2.1-9.8 4.5-12.9.6.2 1.2.7 1.7 1.3-2.2 2.9-3.8 7.3-4.2 12.6-.6-.2-1.3-.4-2-.4-.1-.2 0-.4 0-.6zm4 25c-3.4-7.3-4.8-15.9-4.1-24 .7 0 1.4.1 2 .4v.5C4.7 36.2 6.6 45 10.1 52c-.7.2-1.4.4-2 .9l-.8-1.7zm.9 1.9c.6-.4 1.3-.7 2-.9 2.1 3.9 4.8 7.3 8 9.4-.5.4-1 1-1.3 1.6-3.4-2.1-6.4-5.5-8.7-10.1zm9 10.6c.2-.7.8-1.2 1.3-1.6 1.1.7 2.3 1.3 3.5 1.7 0 .9.2 1.7.5 2.3-1.9-.6-3.6-1.3-5.3-2.4zm7.3 3.3s-.1.2-.2.2-.2-.2-.2-.2c-.6-.7-1.5-2.1-1.2-3.9.1-.5.9-.7 1.5-.7s1.4.2 1.5.7c.1 1.7-.9 3.1-1.4 3.9zm1.3-.9c.4-.6.5-1.5.5-2.3 1.2-.4 2.4-1 3.5-1.8.5.4 1 1 1.3 1.6-1.7 1.2-3.5 1.9-5.3 2.5zm5.7-2.7c-.2-.6-.8-1.2-1.3-1.6 3.2-2.1 5.8-5.5 7.9-9.4.7.1 1.4.4 2 .9-2.4 4.2-5.3 7.8-8.6 10.1zM41 51.2c-.2.5-.5 1-.8 1.5-.6-.4-1.3-.7-2-.9 3.6-6.9 5.4-15.9 4.9-23.8v-.5c.6-.2 1.3-.4 2-.4.7 8.2-.8 16.9-4.1 24.1z"/><linearGradient id="Red_2_" gradientUnits="userSpaceOnUse" x1="-2431.58" y1="478.057" x2="-2431.58" y2="469.685" gradientTransform="translate(11378.32 -2173.536) scale(4.6694)"><stop offset="0" stop-color="#781b21"/><stop offset=".048" stop-color="#8a1e24"/><stop offset=".121" stop-color="#9d2228"/><stop offset=".205" stop-color="#ab252a"/><stop offset=".31" stop-color="#b3272c"/><stop offset=".502" stop-color="#b5272c"/><stop offset=".674" stop-color="#b2262c"/><stop offset=".783" stop-color="#aa252a"/><stop offset=".875" stop-color="#9b2227"/><stop offset=".957" stop-color="#861e24"/><stop offset="1" stop-color="#781b21"/></linearGradient><path id="Red" class="st2" d="M37.6 32.1c-.1-2-.7-8.8-5.1-11.5-.9-.6-2.1-1-3.4-1-2.1-.1-3.8.7-4.8.7-1.1 0-2.6-.9-4.8-.7-1.3.1-2.5.5-3.4 1-4.3 2.6-5 9.4-5.1 11.5-.2 7.1 2.1 12.7 2.8 14.2 3 6.3 6.7 10.7 10.3 12.2l.2.1.2-.1c3.6-1.5 7.3-5.9 10.3-12.2.7-1.5 3-7.1 2.8-14.2z"/><path id="W" class="st3" d="M30.7 27v1.4H31c.2 0 .4 0 .6.2s.2.4.2.9c0 0-2.9 12.2-3.5 14.4C27.7 41 24.2 25 24.2 25v-.1h-.6v.1l-3 18.6c-.7-2.6-3.5-14.2-3.5-14.2v-.2c0-.4.1-.6.2-.7.2-.2.5-.2.5-.2h.2v-1.4h-4.7v1.3h.2c.1 0 .7.2.8.6 0 0 5.8 23.5 6 24.4v.1h.9v-.1c.1-.2 2.3-14.8 2.8-17.5.5 2.8 3.5 17.3 3.6 17.5v.1h.8L34 28.8c.1-.5.6-.6.8-.6h.2v-1.4l-4.3.2z"/><radialGradient id="Gold_3_" cx="-2414.48" cy="489.126" r="6.386" gradientTransform="matrix(4.4964 0 0 4.2933 10880.425 -2064.666)" gradientUnits="userSpaceOnUse"><stop offset=".166" stop-color="#FFF"/><stop offset=".865" stop-color="#c9ab80"/></radialGradient><path id="Gold_1_" class="st4" d="M45.5 26.1c-.4-3.4-1.2-6.5-2.2-9.1 0-.1-.2-.4-.2-.4-.9-2-2.1-3.8-3.4-5.1-2.4-2.5-5.3-3.9-8.6-3.9H31c-.5-1.1-1.9-1.9-3.2-2.1 0 0-.8-2.9-3.9-2.9S20 5.5 20 5.5c-1.3.2-2.6.9-3.2 2.1h-.1c-3.2 0-6.2 1.4-8.6 3.9-1.3 1.4-2.4 3.1-3.4 5.1l-.2.4c-1.1 2.6-2 5.6-2.2 9.1-1.8 17 6.2 37.8 20.6 41 .2.4.8.9 1 .9s.8-.6 1-.9c14.4-3.3 22.5-24 20.6-41z"/><path id="Crest_1_" class="st1" d="M45.5 26.1c-.4-3.4-1.2-6.5-2.2-9.1 0-.1-.2-.4-.2-.4-.9-2-2.1-3.8-3.4-5.1-2.4-2.5-5.3-3.9-8.6-3.9H31c-.5-1.1-1.9-1.9-3.2-2.1 0 0-.8-2.9-3.9-2.9S20 5.5 20 5.5c-1.3.2-2.6.9-3.2 2.1h-.1c-3.2 0-6.2 1.4-8.6 3.9-1.3 1.4-2.4 3.1-3.4 5.1l-.2.4c-1.1 2.6-2 5.6-2.2 9.1-1.8 17 6.2 37.8 20.6 41 .2.4.8.9 1 .9s.8-.6 1-.9c14.4-3.3 22.5-24 20.6-41zm-.6.1v.6c-.7 0-1.4.1-2 .4-.4-5.2-2-9.6-4.2-12.6.4-.5 1-.9 1.7-1.2 2.3 3 4 7.4 4.5 12.8zm-28-12.3c-.5.1-.5.9-.4 1.5s.4 1.2.8 1.2c.7-.1 1.3-1.5 1.2-2.6-.1-1.5-.9-1.9-1.5-1.9-.9 0-1.5 1.3-1.5 3s.6 3 1.5 3c.4 0 6.9.9 6.3-4.6-.2-2.6-1.9-4.5-3.4-5.3 1.5-.9 3.4.6 3.9 2.4.1.4.4.4.4 0 .6-1.9 2.2-3.2 3.7-2.4-1.5.9-3 2.8-3.2 5.3-.4 5.6 6.2 4.7 6.4 4.6.9 0 1.5-1.3 1.5-3s-.7-3-1.5-3c-.5 0-1.4.4-1.5 1.9 0 1.1.5 2.5 1.2 2.6.4 0 .7-.6.8-1.2.1-.6 0-1.4-.4-1.5-.2 0-.4 0-.4.2 0 .1.4.4.2 1 0 .9-1 .5-.9-1 .1-1.3.9-1.2.9-1.2.4 0 1 .8 1 2.2 0 1.3-.7 2.8-2 2-1-.8-1.5-2.5-1.2-3.8.1-.6.7-2.2 2.5-2.2 2.5 0 4.9 1.2 6.8 3.6-.2.6-1.2 2.9-5.5 5.2-1.5-.9-3.1-1.2-4.5-1.2-2.3 0-3.1.7-4.1.7-1 0-1.8-.7-4.1-.7-1.5 0-3.2.4-4.5 1.2-4.2-2.3-5.2-4.5-5.5-5.2 1.9-2.4 4.3-3.7 6.9-3.7 1.8 0 2.3 1.6 2.4 2.2.2 1.3-.1 3.1-1.2 3.8-1.3.7-2-.7-2-2 0-1.5.6-2.2 1-2.2 0 0 .8-.1.9 1.3.1 1.5-.9 2-.9 1 0-.6.4-.9.2-1 0-.1-.1-.2-.3-.2zm21.6 1.3c2.1 2.9 3.7 7.2 3.9 12.7-.8.4-2.4 1.1-4.5 1.3-.5-2.8-1.7-6.7-4.7-8.8 3.7-2.2 5-4.3 5.3-5.2zm-23.6 5c-3 2.1-4.2 6-4.7 8.8-2.1-.2-3.8-.9-4.5-1.3.4-5.5 1.8-9.8 3.9-12.6.3 1 1.6 3.1 5.3 5.1zm-4.8 9.2c-.2 1-.2 1.9-.2 2.5v3.2c.1 1.7.4 3.4.8 5.1v.2c.7 3 1.6 5.2 2.1 6 .7 1.4 1.4 2.6 2.1 3.8-1.4 1.2-3.4 1.6-4.1 1.8-3.6-6.8-5.5-15.7-5.1-23.7.8.4 2.3 1 4.4 1.1zm4.8 21.3c2.4 3.9 4.8 6.3 6.6 7.5-.7 1.6-2.2 2.8-2.8 3.2-3.2-2-5.8-5.2-7.9-9.1.8 0 2.7-.5 4.1-1.6zm7 7.8c1 .7 2.1 1.1 2.1 1.1s1.1-.4 2.1-1.1c.7 1.5 2.1 2.8 2.8 3.2-.9.6-1.9 1-2.8 1.4V63c-.2-1-1.6-1.2-2.1-1.2s-1.9.2-2.1 1.2v.1c-.9-.4-1.9-.8-2.8-1.3.7-.6 2.1-1.7 2.8-3.3zm4.7-.3c1.8-1.3 4.2-3.7 6.6-7.5 1.3 1.1 3.1 1.6 4.1 1.8-2.1 3.9-4.7 7.1-7.8 9.1-.8-.5-2.3-1.7-2.9-3.4zm6.7-8c.7-1.1 1.4-2.4 2-3.7.4-.8 1.4-3 2.1-6v-.2c.4-1.7.6-3.4.8-5.1v-.1-.5V32c0-.6-.1-1.5-.2-2.5 2.1-.2 3.7-.8 4.5-1.2.2 8.1-1.5 16.9-5.1 23.8-.9-.2-2.8-.7-4.1-1.9zM30.9 8.3c3.7 0 6.9 1.7 9.2 4.7-.6.2-1.2.7-1.7 1.2-2-2.4-4.3-3.8-7.1-3.8-1.7 0-2.8 1.2-3.2 2.8-.2 1.3 0 2.8.9 3.8.4.4.2.6.1.6-1.1 0-4.2-.6-3.9-4.1.2-2.2 1.4-3.7 2.6-4.5 1.2-.6 2.7-.7 3.1-.7zM24 3.2c2.5 0 3.1 2.3 3.1 2.4-.2 0-.4 0-.5.1l-.4.1c-.9.2-1.6.9-2.1 1.6 0 0 0 .1-.1.1l-.1-.1c-.4-.8-1.2-1.3-2.1-1.6l-.4-.1c-.2 0-.4 0-.5-.1 0 0 .6-2.4 3.1-2.4zM20.6 6c1.5 0 2.6.9 3.1 2.1.1.4.2.4.4 0 .4-1.3 1.7-2.1 3.1-2.1 1.2 0 2.3.7 2.9 1.7-.4.1-.9.2-1.4.4-.8-.7-1.6-.7-2.1-.5-1.2.4-2.1 1.5-2.6 2.5-.5-.9-1.5-2.1-2.6-2.5-.5-.2-1.4-.2-2.1.5-.4-.2-.9-.2-1.4-.4.4-1 1.6-1.7 2.7-1.7zm-3.5 2.3c.5 0 1.9.1 3.1.8 1.3.9 2.4 2.3 2.6 4.5.2 3.4-3.4 3.9-4.1 3.9-.1 0-.2-.1.2-.4.9-1 1.1-2.6.9-3.8-.4-1.5-1.5-2.8-3.2-2.8-2.8 0-5.1 1.4-7.1 3.8-.4-.5-1-.9-1.7-1.2 2.4-3.1 5.6-4.8 9.3-4.8zm-14 17.9c.6-5.4 2.1-9.8 4.5-12.9.6.2 1.2.7 1.7 1.3-2.2 2.9-3.8 7.3-4.2 12.6-.6-.2-1.3-.4-2-.4v-.6zm4 25c-3.4-7.3-4.8-15.9-4.1-24 .7 0 1.4.1 2 .4v.5C4.5 36.2 6.4 45 9.9 52c-.7.2-1.4.4-2 .9l-.8-1.7zm1 1.9c.6-.4 1.3-.7 2-.9 2.1 3.9 4.8 7.3 8 9.4-.5.4-1 1-1.3 1.6-3.4-2.1-6.3-5.5-8.7-10.1zm9 10.6c.2-.7.8-1.2 1.3-1.6 1.1.7 2.3 1.3 3.5 1.7 0 .9.2 1.7.5 2.3-1.9-.6-3.6-1.3-5.3-2.4zm7.2 3.3s-.1.2-.2.2-.2-.2-.2-.2c-.6-.7-1.5-2.1-1.2-3.9.1-.5.9-.7 1.5-.7s1.4.2 1.5.7c.1 1.7-.8 3.1-1.4 3.9zm1.3-.9c.4-.6.5-1.5.5-2.3 1.2-.4 2.4-1 3.5-1.8.5.4 1 1 1.3 1.6-1.6 1.2-3.4 1.9-5.3 2.5zm5.8-2.7c-.2-.6-.8-1.2-1.3-1.6 3.2-2.1 5.8-5.5 7.9-9.4.7.1 1.4.4 2 .9-2.4 4.2-5.3 7.8-8.6 10.1zm9.5-12.2c-.2.5-.5 1-.8 1.5-.6-.4-1.3-.7-2-.9 3.6-6.9 5.4-15.9 4.9-23.8v-.5c.6-.2 1.3-.4 2-.4.7 8.2-.8 16.9-4.1 24.1z"/><linearGradient id="Red_3_" gradientUnits="userSpaceOnUse" x1="-2431.621" y1="478.057" x2="-2431.621" y2="469.685" gradientTransform="translate(11378.32 -2173.536) scale(4.6694)"><stop offset="0" stop-color="#781b21"/><stop offset=".048" stop-color="#8a1e24"/><stop offset=".121" stop-color="#9d2228"/><stop offset=".205" stop-color="#ab252a"/><stop offset=".31" stop-color="#b3272c"/><stop offset=".502" stop-color="#b5272c"/><stop offset=".674" stop-color="#b2262c"/><stop offset=".783" stop-color="#aa252a"/><stop offset=".875" stop-color="#9b2227"/><stop offset=".957" stop-color="#861e24"/><stop offset="1" stop-color="#781b21"/></linearGradient><path id="Red_1_" class="st5" d="M37.4 32.1c-.1-2-.7-8.8-5.1-11.5-.9-.6-2.1-1-3.4-1-2.1-.1-3.8.7-4.8.7-1.1 0-2.6-.9-4.8-.7-1.3.1-2.5.5-3.4 1-4.3 2.6-5 9.4-5.1 11.5-.2 7.1 2.1 12.7 2.8 14.2 3 6.3 6.7 10.7 10.3 12.2l.2.1.2-.1c3.6-1.5 7.3-5.9 10.3-12.2.7-1.5 3.1-7.1 2.8-14.2z"/><path id="W_1_" class="st3" d="M30.5 27v1.4H30.8c.2 0 .4 0 .6.2s.2.4.2.9c0 0-2.9 12.2-3.5 14.4C27.5 41 24 25 24 25v-.1h-.7v.1l-3 18.6c-.7-2.6-3.5-14.2-3.5-14.2v-.2c0-.4.1-.6.2-.7.2-.2.5-.2.5-.2h.2v-1.4h-4.9v1.3h.2c.1 0 .7.2.8.6 0 0 5.8 23.5 6 24.4v.1h.9v-.1c0-.2 2.3-14.8 2.8-17.5.5 2.8 3.5 17.3 3.6 17.5v.1h.8l5.6-24.5c.1-.5.6-.6.8-.6h.2v-1.4l-4 .2z"/><g class="st6"><path class="st7" d="M63.1 51.1c0 .7-.1 1.2-.3 1.8-.2.5-.5 1-.9 1.3-.4.4-.9.6-1.4.8-.5.2-1.1.3-1.8.3s-1.3-.1-1.8-.3c-.5-.2-1-.5-1.4-.8-.4-.4-.7-.8-.9-1.3s-.3-1.1-.3-1.8v-7.2h1.3V51c0 .6.1 1 .2 1.4.2.4.4.7.6 1 .3.3.6.5 1 .6.4.1.8.2 1.2.2.5 0 .9-.1 1.2-.2.4-.1.7-.3 1-.6.3-.3.5-.6.6-1 .2-.4.2-.9.2-1.4v-7.1h1.3v7.2zM70.4 55.1v-4c0-.5-.1-.9-.3-1.1-.2-.2-.6-.4-1-.4s-.7.1-1.1.3c-.4.2-.7.5-.9.7v4.5h-1.2v-6.4h1.2v1c.3-.3.7-.6 1.2-.8.4-.2.9-.3 1.3-.3.8 0 1.3.2 1.7.6.4.4.5.9.5 1.6v4.4h-1.4zM75.5 46.4c0 .2-.1.4-.2.5s-.3.2-.6.2c-.2 0-.4-.1-.6-.2s-.2-.3-.2-.5.1-.4.2-.6c.2-.2.3-.2.6-.2.2 0 .4.1.6.2.1.2.2.4.2.6zM74 55.1v-6.4h1.2v6.4H74zM80.4 55.3h-.2L77 48.7h1.4l2 4.5 2-4.5h1.3l-3.3 6.6zM91.2 51.6v.6h-4.9c0 .3.1.5.2.8.1.2.3.4.5.6.2.2.4.3.7.4.3.1.7.1 1.1.1.3 0 .6 0 .9-.1.3-.1.6-.1.9-.3l.2 1c-.4.1-.8.2-1.1.3-.4.1-.7.1-1 .1-.6 0-1.1-.1-1.6-.3-.4-.2-.8-.4-1.1-.7-.3-.3-.5-.7-.7-1.1-.1-.4-.2-.8-.2-1.3 0-.4.1-.9.2-1.3s.4-.8.6-1.1c.3-.3.6-.6 1-.7.4-.2.9-.3 1.4-.3.5 0 .9.1 1.2.2.4.2.7.4.9.7.2.3.4.6.6 1 .1.6.2 1 .2 1.4zm-1.2-.3c0-.5-.2-.9-.5-1.3-.3-.3-.7-.5-1.3-.5-.5 0-1 .2-1.3.5-.3.3-.5.7-.6 1.3H90zM96.8 49.7c-.5 0-.9.1-1.3.2-.4.2-.7.4-1 .7V55h-1.2v-6.4h1.2v1.1c.3-.4.7-.7 1.1-.9.4-.2.8-.3 1.3-.3v1.2zM102.6 53.2c0 .3-.1.5-.2.8-.1.2-.3.5-.5.6-.2.2-.4.3-.7.4-.3.1-.6.2-.9.2-.5 0-.9-.1-1.3-.2s-.8-.4-1.1-.6l.6-.9c.3.2.5.4.8.5.3.1.6.2.8.2.4 0 .7-.1.9-.2.2-.2.3-.4.3-.7 0-.2-.1-.4-.2-.5s-.3-.2-.6-.4c-.2-.1-.5-.2-.7-.3-.3-.1-.5-.2-.7-.4-.2-.1-.4-.3-.6-.5-.2-.2-.2-.5-.2-.8 0-.3.1-.5.2-.7.1-.2.3-.4.5-.6.2-.2.4-.3.7-.4.3-.1.6-.2.9-.2.3 0 .7.1 1 .2.3.1.6.3.9.4l-.6.9c-.2-.1-.4-.3-.7-.4-.2-.1-.5-.2-.8-.2-.4 0-.7.1-.8.2-.2.2-.3.4-.3.6 0 .2.1.3.2.5.2.1.3.2.6.3.2.1.5.2.7.3.3.1.5.2.7.4s.4.3.6.6c.5.3.5.6.5.9zM106.2 46.4c0 .2-.1.4-.2.5-.2.2-.3.2-.6.2-.2 0-.4-.1-.6-.2-.2-.2-.2-.3-.2-.5s.1-.4.2-.6c.2-.2.3-.2.6-.2.2 0 .4.1.6.2.1.2.2.4.2.6zm-1.4 8.7v-6.4h1.2v6.4h-1.2zM110.1 49.7v3.6c0 .3.1.5.3.6.2.1.4.2.8.2h.6l.1 1c-.2 0-.4.1-.6.1h-.5c-.6 0-1.1-.2-1.4-.5-.3-.3-.5-.8-.5-1.5v-3.5h-1.1v-.2l1.1-1v-1.1l1.2-.9v2.1h2v1h-2zM115 58.4h-1.2l2-3.9-2.8-5.8h1.4l2 4.6 2-4.6h1.3l-4.7 9.7zM132 51.9c0 .5-.1.9-.2 1.3-.2.4-.4.8-.7 1.1-.3.3-.6.5-1.1.7-.4.2-.9.3-1.4.3-.5 0-1-.1-1.4-.3-.4-.2-.8-.4-1.1-.7-.3-.3-.5-.7-.7-1.1-.2-.4-.2-.8-.2-1.3s.1-.9.2-1.3c.2-.4.4-.8.7-1.1.3-.3.6-.5 1.1-.7s.9-.3 1.4-.3c.5 0 1 .1 1.4.3s.8.4 1.1.7c.3.3.5.7.7 1.1.1.4.2.8.2 1.3zm-1.2 0c0-.7-.2-1.3-.6-1.7-.4-.4-.9-.6-1.5-.6s-1.2.2-1.6.6c-.4.4-.6 1-.6 1.7s.2 1.3.6 1.7c.4.4.9.6 1.6.6.6 0 1.1-.2 1.5-.6.4-.5.6-1 .6-1.7zM138.1 44.9c-.2-.1-.4-.1-.6-.1-.6 0-1 .1-1.2.4-.2.3-.3.7-.3 1.4v2h2v1h-2V55h-1.2v-5.4h-1v-.2l1-1v-1.7c0-1 .2-1.8.6-2.3.4-.5 1.1-.8 2-.8h.5c.2 0 .3.1.5.1l-.3 1.2zM153.9 55.3h-.3l-3.7-8.9-3.6 8.9h-.3l-3.2-11.4h1.3l2.3 8.3 3.4-8.4h.2l3.4 8.3 2.3-8.2h1.3l-3.1 11.4zM160.3 46.4c0 .2-.1.4-.2.5s-.3.2-.6.2c-.2 0-.4-.1-.6-.2-.2-.2-.2-.3-.2-.5s.1-.4.2-.6c.2-.2.3-.2.6-.2.2 0 .4.1.6.2.1.2.2.4.2.6zm-1.5 8.7v-6.4h1.2v6.4h-1.2zM166.7 53.2c0 .3-.1.5-.2.8s-.3.5-.5.6c-.2.2-.4.3-.7.4-.3.1-.6.2-.9.2-.5 0-.9-.1-1.3-.2s-.8-.4-1.1-.6l.6-.9c.3.2.5.4.8.5.3.1.6.2.8.2.4 0 .7-.1.9-.2.2-.2.3-.4.3-.7 0-.2-.1-.4-.2-.5-.2-.1-.3-.2-.6-.4-.2-.1-.5-.2-.7-.3-.3-.1-.5-.2-.7-.4-.2-.1-.4-.3-.6-.5-.2-.2-.2-.5-.2-.8 0-.3.1-.5.2-.7.1-.2.3-.4.5-.6.2-.2.4-.3.7-.4.3-.1.6-.2.9-.2.3 0 .7.1 1 .2.3.1.6.3.9.4l-.6.9c-.2-.1-.4-.3-.7-.4-.2-.1-.5-.2-.8-.2-.4 0-.7.1-.8.2-.2.2-.3.4-.3.6 0 .2.1.3.2.5.2.1.3.2.6.3.2.1.5.2.7.3.3.1.5.2.7.4s.4.3.6.6c.4.3.5.6.5.9zM174.3 54.5c-.3.2-.7.3-1.1.5-.4.1-.8.2-1.2.2-.5 0-1-.1-1.4-.3-.4-.2-.8-.4-1.1-.7-.3-.3-.6-.7-.7-1.1-.2-.4-.3-.8-.3-1.3s.1-.9.3-1.3c.2-.4.4-.8.7-1.1.3-.3.7-.5 1.1-.7.4-.2.9-.3 1.4-.3.4 0 .8.1 1.2.2.4.1.7.3 1.1.5l-.5.9c-.3-.2-.6-.3-.9-.4-.3-.1-.6-.2-1-.2-.3 0-.6.1-.9.2-.3.1-.5.3-.7.5-.2.2-.4.4-.5.7-.1.3-.2.6-.2 1 0 .3.1.7.2.9.1.3.3.5.5.7.2.2.5.3.8.5.3.1.6.2.9.2.3 0 .7-.1 1-.2.3-.1.6-.2.9-.4l.4 1zM182.6 51.9c0 .5-.1.9-.2 1.3-.2.4-.4.8-.7 1.1-.3.3-.6.5-1.1.7-.4.2-.9.3-1.4.3-.5 0-1-.1-1.4-.3-.4-.2-.8-.4-1.1-.7-.3-.3-.5-.7-.7-1.1-.2-.4-.2-.8-.2-1.3s.1-.9.2-1.3c.2-.4.4-.8.7-1.1.3-.3.6-.5 1.1-.7s.9-.3 1.4-.3c.5 0 1 .1 1.4.3s.8.4 1.1.7c.3.3.5.7.7 1.1.1.4.2.8.2 1.3zm-1.2 0c0-.7-.2-1.3-.6-1.7-.4-.4-.9-.6-1.5-.6s-1.2.2-1.5.6c-.4.4-.6 1-.6 1.7s.2 1.3.6 1.7c.4.4.9.6 1.5.6s1.1-.2 1.5-.6.6-1 .6-1.7zM189.4 55.1v-4c0-.5-.1-.9-.3-1.1-.2-.2-.6-.4-1-.4s-.7.1-1.1.3c-.4.2-.7.5-.9.7v4.5h-1.3v-6.4h1.2v1c.3-.3.7-.6 1.2-.8.4-.2.9-.3 1.3-.3.8 0 1.3.2 1.7.6.4.4.5.9.5 1.6v4.4h-1.3zM197.1 53.2c0 .3-.1.5-.2.8s-.3.5-.5.6c-.2.2-.4.3-.7.4-.3.1-.6.2-.9.2-.5 0-.9-.1-1.3-.2s-.8-.4-1.1-.6l.6-.9c.3.2.5.4.8.5.3.1.6.2.8.2.4 0 .7-.1.9-.2.2-.2.3-.4.3-.7 0-.2-.1-.4-.2-.5-.2-.1-.3-.2-.6-.4-.2-.1-.5-.2-.7-.3-.3-.1-.5-.2-.7-.4-.2-.1-.4-.3-.6-.5-.2-.2-.2-.5-.2-.8 0-.3.1-.5.2-.7.1-.2.3-.4.5-.6.2-.2.4-.3.7-.4.3-.1.6-.2.9-.2s.7.1 1 .2c.3.1.6.3.9.4l-.6.9c-.2-.1-.4-.3-.7-.4-.2-.1-.5-.2-.8-.2-.4 0-.7.1-.8.2-.2.2-.3.4-.3.6 0 .2.1.3.2.5.2.1.3.2.6.3.2.1.5.2.7.3.3.1.5.2.7.4.2.2.4.3.6.6.4.3.5.6.5.9zM200.7 46.4c0 .2-.1.4-.2.5s-.3.2-.6.2c-.2 0-.4-.1-.6-.2-.2-.2-.2-.3-.2-.5s.1-.4.2-.6c.2-.2.3-.2.6-.2.2 0 .4.1.6.2.1.2.2.4.2.6zm-1.5 8.7v-6.4h1.2v6.4h-1.2zM207.6 55.1v-4c0-.5-.1-.9-.3-1.1-.2-.2-.6-.4-1-.4s-.7.1-1.1.3c-.4.2-.7.5-.9.7v4.5H203v-6.4h1.2v1c.3-.3.7-.6 1.2-.8.4-.2.9-.3 1.3-.3.8 0 1.3.2 1.7.6.4.4.5.9.5 1.6v4.4h-1.3zM211.1 51.9v-1h3.8v1h-3.8zM227.4 55.1l-.2-7.9-4.1 6.8h-.1l-4.1-6.8-.1 7.9h-1.3l.4-11.4h.2l5 8.4 4.9-8.4h.3l.4 11.4h-1.3zM235.4 55.1v-.7c-.3.3-.6.5-.9.6-.3.1-.7.2-1.1.2-.3 0-.6 0-.9-.1-.3-.1-.5-.2-.8-.4-.2-.2-.4-.4-.5-.7-.1-.3-.2-.5-.2-.9 0-.3.1-.6.2-.8.1-.2.3-.5.5-.6.2-.2.5-.3.8-.4.3-.1.6-.2.9-.2.5 0 .8 0 1.1.1l.9.3v-.4c0-.6-.1-1-.4-1.2-.3-.3-.7-.4-1.3-.4-.3 0-.6 0-.9.1-.3.1-.6.1-.8.2l-.2-1c.3-.1.6-.2 1-.2.4-.1.7-.1 1.1-.1 1 0 1.7.2 2.1.7s.7 1.1.7 2.1v3.8h-1.3zm0-2.5c-.3-.2-.6-.3-.9-.4-.2-.1-.6-.1-.9-.1-.4 0-.8.1-1 .3-.3.2-.4.5-.4.8 0 .4.1.6.4.8.3.2.6.3 1.1.3.3 0 .7-.1.9-.2.3-.1.5-.3.7-.6v-.9zM244 55.1v-.7c-.3.3-.6.5-.9.6-.4.1-.8.2-1.2.2-.5 0-.9-.1-1.3-.2-.4-.2-.7-.4-1-.7-.3-.3-.5-.6-.7-1-.2-.4-.2-.8-.2-1.3s.1-.9.3-1.3c.2-.4.4-.8.7-1.1.3-.3.6-.5 1-.7.4-.2.8-.3 1.3-.3.4 0 .8.1 1.2.2s.6.3.9.5V44h1.3v11.2H244zm-.1-4.7c-.2-.2-.5-.5-.8-.6-.3-.2-.7-.3-1.1-.3-.3 0-.6.1-.9.2-.3.1-.5.3-.7.5-.2.2-.3.5-.4.7-.1.3-.2.6-.2.9 0 .3 0 .6.1.9s.2.5.4.7c.2.2.4.4.7.5.3.1.6.2.9.2.4 0 .8-.1 1.1-.2.3-.2.6-.4.8-.6v-2.9zM249.1 46.4c0 .2-.1.4-.2.5s-.3.2-.6.2c-.2 0-.4-.1-.6-.2-.2-.2-.2-.3-.2-.5s.1-.4.2-.6c.2-.2.3-.2.6-.2.2 0 .4.1.6.2.1.2.2.4.2.6zm-1.5 8.7v-6.4h1.2v6.4h-1.2zM255.5 53.2c0 .3-.1.5-.2.8-.1.2-.3.5-.5.6-.2.2-.4.3-.7.4-.3.1-.6.2-.9.2-.5 0-.9-.1-1.3-.2s-.8-.4-1.1-.6l.6-.9c.3.2.5.4.8.5.3.1.6.2.8.2.4 0 .7-.1.9-.2.2-.2.3-.4.3-.7 0-.2-.1-.4-.2-.5-.2-.1-.3-.2-.6-.4-.2-.1-.5-.2-.7-.3-.3-.1-.5-.2-.7-.4-.2-.1-.4-.3-.6-.5-.2-.2-.2-.5-.2-.8 0-.3.1-.5.2-.7.1-.2.3-.4.5-.6.2-.2.4-.3.7-.4.3-.1.6-.2.9-.2s.7.1 1 .2c.3.1.6.3.9.4l-.6.9c-.2-.1-.4-.3-.7-.4-.2-.1-.5-.2-.8-.2-.4 0-.7.1-.8.2-.2.2-.3.4-.3.6 0 .2.1.3.2.5.2.1.3.2.6.3.2.1.5.2.7.3.3.1.5.2.7.4.2.2.4.3.6.6.4.3.5.6.5.9zM264 51.9c0 .5-.1.9-.2 1.3-.2.4-.4.8-.7 1.1-.3.3-.6.5-1.1.7-.4.2-.9.3-1.4.3-.5 0-1-.1-1.4-.3-.4-.2-.8-.4-1.1-.7-.3-.3-.5-.7-.7-1.1-.2-.4-.2-.8-.2-1.3s.1-.9.2-1.3.4-.8.7-1.1c.3-.3.6-.5 1.1-.7s.9-.3 1.4-.3c.5 0 1 .1 1.4.3.4.2.8.4 1.1.7.3.3.5.7.7 1.1s.2.8.2 1.3zm-1.2 0c0-.7-.2-1.3-.6-1.7-.4-.4-.9-.6-1.5-.6s-1.2.2-1.5.6c-.4.4-.6 1-.6 1.7s.2 1.3.6 1.7c.4.4.9.6 1.5.6s1.1-.2 1.5-.6c.4-.5.6-1 .6-1.7zM270.8 55.1v-4c0-.5-.1-.9-.3-1.1-.2-.2-.6-.4-1-.4s-.7.1-1.1.3c-.4.2-.7.5-.9.7v4.5h-1.3v-6.4h1.2v1c.3-.3.7-.6 1.2-.8.4-.2.9-.3 1.3-.3.8 0 1.3.2 1.7.6.4.4.5.9.5 1.6v4.4h-1.3zM279 55.1V43.9h1.3V54h5.5v1.1H279zM289.1 46.4c0 .2-.1.4-.2.5s-.3.2-.6.2c-.2 0-.4-.1-.6-.2s-.2-.3-.2-.5.1-.4.2-.6c.2-.2.3-.2.6-.2.2 0 .4.1.6.2.1.2.2.4.2.6zm-1.5 8.7v-6.4h1.2v6.4h-1.2zM297.9 51.8c0 .5-.1.9-.3 1.3-.2.4-.4.8-.7 1.1-.3.3-.6.5-1 .7-.4.2-.8.3-1.3.3-.4 0-.7-.1-1.1-.2-.4-.1-.7-.3-1-.6v.6h-1.2V43.9h1.3v5.4c.3-.2.6-.4 1-.5.4-.1.8-.2 1.2-.2.4 0 .9.1 1.2.2.4.2.7.4 1 .7.3.3.5.6.7 1s.2.8.2 1.3zm-1.2 0c0-.3 0-.6-.1-.9-.1-.3-.2-.5-.4-.7-.2-.2-.4-.4-.7-.5-.3-.1-.6-.2-.9-.2-.4 0-.8.1-1.1.2-.3.1-.6.3-.8.6v3c.2.2.5.4.8.6.3.2.6.2 1 .2.3 0 .6-.1.9-.2.3-.1.5-.3.7-.5.2-.2.4-.5.5-.7 0-.2.1-.5.1-.9zM303.6 49.7c-.5 0-.9.1-1.3.2-.4.2-.7.4-1 .7V55h-1.2v-6.4h1.2v1.1c.3-.4.7-.7 1.1-.9.4-.2.8-.3 1.3-.3v1.2zM309.5 55.1v-.7c-.3.3-.6.5-.9.6-.3.1-.7.2-1.1.2-.3 0-.6 0-.9-.1-.3-.1-.5-.2-.8-.4-.2-.2-.4-.4-.5-.7-.1-.3-.2-.5-.2-.9 0-.3.1-.6.2-.8.1-.2.3-.5.5-.6.2-.2.5-.3.8-.4.3-.1.6-.2.9-.2.5 0 .8 0 1.1.1l.9.3v-.4c0-.6-.1-1-.4-1.2-.3-.3-.7-.4-1.3-.4-.3 0-.6 0-.9.1-.3.1-.6.1-.8.2l-.2-1c.3-.1.6-.2 1-.2.4-.1.7-.1 1.1-.1 1 0 1.7.2 2.1.7s.7 1.1.7 2.1v3.8h-1.3zm-.1-2.5c-.3-.2-.6-.3-.9-.4-.2-.1-.6-.1-.9-.1-.4 0-.8.1-1 .3-.3.2-.4.5-.4.8 0 .4.1.6.4.8.3.2.6.3 1.1.3.3 0 .7-.1.9-.2.3-.1.5-.3.7-.6v-.9zM316.5 49.7c-.5 0-.9.1-1.3.2-.4.2-.7.4-1 .7V55H313v-6.4h1.2v1.1c.3-.4.7-.7 1.1-.9.4-.2.8-.3 1.3-.3v1.2zM319.7 46.4c0 .2-.1.4-.2.5-.2.2-.3.2-.6.2-.2 0-.4-.1-.6-.2s-.2-.3-.2-.5.1-.4.2-.6c.2-.2.3-.2.6-.2.2 0 .4.1.6.2.2.2.2.4.2.6zm-1.4 8.7v-6.4h1.2v6.4h-1.2zM327.9 51.6v.6H323c0 .3.1.5.2.8s.3.4.5.6c.2.2.4.3.7.4.3.1.7.1 1.1.1.3 0 .6 0 .9-.1.3-.1.6-.1.9-.3l.2 1c-.4.1-.8.2-1.1.3-.4.1-.7.1-1 .1-.6 0-1.1-.1-1.6-.3-.4-.2-.8-.4-1.1-.7-.3-.3-.5-.7-.7-1.1-.1-.4-.2-.8-.2-1.3 0-.4.1-.9.2-1.3s.4-.8.6-1.1c.3-.3.6-.6 1-.7.4-.2.9-.3 1.4-.3.5 0 .9.1 1.2.2.4.2.7.4.9.7.2.3.4.6.6 1 .2.6.2 1 .2 1.4zm-1.1-.3c0-.5-.2-.9-.5-1.3-.3-.3-.7-.5-1.3-.5-.5 0-1 .2-1.3.5-.3.3-.5.7-.6 1.3h3.7zM334.1 53.2c0 .3-.1.5-.2.8s-.3.5-.5.6c-.2.2-.4.3-.7.4s-.6.2-.9.2c-.5 0-.9-.1-1.3-.2s-.8-.4-1.1-.6l.6-.9c.3.2.5.4.8.5.3.1.6.2.8.2.4 0 .7-.1.9-.2.2-.2.3-.4.3-.7 0-.2-.1-.4-.2-.5s-.3-.2-.6-.4c-.2-.1-.5-.2-.7-.3-.3-.1-.5-.2-.7-.4-.2-.1-.4-.3-.6-.5-.2-.2-.2-.5-.2-.8 0-.3.1-.5.2-.7.1-.2.3-.4.5-.6.2-.2.4-.3.7-.4.3-.1.6-.2.9-.2.3 0 .7.1 1 .2.3.1.6.3.9.4l-.6.9c-.2-.1-.4-.3-.7-.4-.2-.1-.5-.2-.8-.2-.4 0-.7.1-.8.2-.2.2-.3.4-.3.6 0 .2.1.3.2.5.2.1.3.2.6.3s.5.2.7.3c.3.1.5.2.7.4.2.2.4.3.6.6.4.3.5.6.5.9z"/></g><path class="st3" d="M69.8 25.6c0 1.3-.2 2.6-.7 3.8-.4 1.2-1.1 2.3-1.9 3.2-.8 1-1.9 1.7-3.3 2.1-1.3.5-2.9.8-4.7.8h-1.3c-.4 0-.9 0-1.2-.1-.4 0-.8 0-1.2-.1-.4-.1-.9-.1-1.3-.1V16.4c.9-.1 1.7-.2 2.5-.2s1.6-.1 2.6-.1c1.8 0 3.4.2 4.7.7 1.3.5 2.5 1.2 3.4 2 .9.8 1.6 1.9 2 3.1.2 1.2.4 2.4.4 3.7zm-3.3 0c0-1-.1-1.9-.4-2.7s-.8-1.5-1.3-2.1c-.6-.6-1.3-1.1-2.2-1.3-.9-.4-1.9-.5-3-.5-.9 0-1.7 0-2.4.1v13.3c.3.1.8.1 1.1.1h1.5c1.1 0 2.1-.1 3-.5.9-.4 1.6-.8 2.1-1.4.6-.6 1-1.4 1.2-2.3.3-.8.4-1.8.4-2.7zM73.5 35.3V16.2h3.1v19.1h-3.1zM96.6 25.2v8.3c-1 .7-2 1.2-3 1.5-1.1.4-2.2.6-3.7.6-1.2 0-2.5-.2-3.7-.7-1.1-.5-2.2-1.2-3-2-.9-.8-1.6-1.9-2.1-3.1s-.8-2.6-.8-4c0-1.5.2-2.9.8-4s1.2-2.3 2.1-3.1c.9-.8 1.9-1.5 3-2s2.4-.7 3.6-.7c1.3 0 2.5.2 3.5.6 1 .4 2 .8 2.9 1.4l-1.5 2.6c-.8-.5-1.6-1-2.4-1.2-.8-.2-1.7-.5-2.5-.5-1 0-1.9.2-2.8.6-.8.4-1.5.8-2 1.4-.6.6-1 1.3-1.2 2.1-.3.8-.4 1.8-.4 2.7 0 1.1.1 1.9.4 2.9.3.8.8 1.5 1.3 2.3.6.6 1.2 1.1 2 1.4.8.4 1.6.5 2.5.5.8 0 1.5-.1 2-.2.6-.1 1.1-.4 1.7-.7v-3.8h-3.9v-2.9h7.2zM100.4 35.3V16.2h3.1v19.1h-3.1zM115.4 19.2v16.2h-3.1V19.2h-5.7v-3h14.6v3h-5.8zM135.7 35.3l-1.8-4.4h-7.2l-1.8 4.4h-3.1l8.3-19.4h.4l8.3 19.4h-3.1zm-5.2-13.4l-2.6 6.4h5.2l-2.6-6.4zM141.1 35.3V16.2h3.1v16.2h8v3h-11.1zM175.5 33.8c-.8.5-1.7 1-2.7 1.3-1 .4-2.1.5-3.3.5-1.5 0-2.7-.2-3.9-.7-1.2-.5-2.2-1.2-3-2-.9-.8-1.6-1.9-2-3.1s-.7-2.5-.7-3.9.2-2.7.7-3.9c.4-1.2 1.1-2.3 2-3.2.9-1 1.9-1.5 3.1-2 1.2-.5 2.5-.7 3.9-.7 1.1 0 2.2.1 3.1.5 1 .4 1.9.7 2.7 1.3l-1 2.7c-.7-.5-1.5-.8-2.4-1.1-.8-.2-1.7-.4-2.5-.4-1 0-1.9.1-2.7.5-.8.4-1.5.8-2 1.4-.6.6-1 1.3-1.2 2.1-.3.8-.4 1.8-.4 2.7 0 1 .1 1.9.4 2.7.3.8.8 1.5 1.3 2.1.6.6 1.2 1.1 2 1.4.8.4 1.7.5 2.7.5.8 0 1.7-.1 2.5-.5.9-.2 1.7-.6 2.5-1.1l.9 2.9zM196.2 25.7c0 1.4-.2 2.7-.7 3.9-.4 1.2-1.1 2.3-1.9 3.1-.8.8-1.8 1.5-2.9 2-1.1.5-2.4.7-3.7.7-1.3 0-2.5-.2-3.6-.7-1.1-.5-2-1.2-2.9-2-.8-.8-1.5-1.9-1.9-3.1s-.7-2.5-.7-3.9.2-2.7.7-3.9 1.1-2.3 1.9-3.1c.8-.8 1.8-1.5 2.9-2 1.1-.5 2.4-.7 3.6-.7 1.3 0 2.6.2 3.6.7 1 .5 2 1.2 2.9 2 .9.8 1.5 1.9 1.9 3.1.5 1.2.8 2.5.8 3.9zm-3.3 0c0-1-.1-1.9-.4-2.7s-.7-1.5-1.2-2.3c-.6-.6-1.1-1.1-1.8-1.4-.7-.4-1.5-.5-2.4-.5-.9 0-1.7.1-2.4.5s-1.3.8-1.8 1.4c-.6.6-.9 1.4-1.2 2.3-.3.8-.4 1.8-.4 2.7 0 1 .1 1.9.4 2.7.3.8.7 1.5 1.2 2.3.6.6 1.1 1.1 1.8 1.4.7.4 1.5.6 2.4.6.9 0 1.7-.1 2.4-.6.7-.4 1.3-.8 1.8-1.4.6-.6.9-1.3 1.2-2.3.2-.7.4-1.6.4-2.7zM199.8 35.3V16.2h3.1v16.2h7.9v3h-11zM213.5 35.3V16.2h3.1v16.2h8v3h-11.1zM227.2 35.3V16.2h11v3h-8v5h7.2V27h-7.2v5.4h8v3h-11zM257.3 33.8c-.8.5-1.7 1-2.7 1.3-1 .4-2.1.5-3.3.5-1.5 0-2.7-.2-3.9-.7s-2.2-1.2-3.1-2c-.9-.8-1.6-1.9-2-3.1s-.7-2.5-.7-3.9.2-2.7.7-3.9c.4-1.2 1.1-2.3 2-3.2.9-.8 1.9-1.5 3.1-2 1.2-.5 2.5-.7 3.9-.7 1.1 0 2.2.1 3.1.5 1 .4 1.9.7 2.7 1.3l-1 2.7c-.7-.5-1.5-.8-2.4-1.1-.8-.2-1.7-.4-2.5-.4-1 0-1.9.1-2.7.5-.8.4-1.5.8-2 1.4-.6.6-1 1.3-1.2 2.1-.3.8-.4 1.8-.4 2.7 0 1 .1 1.9.4 2.7s.8 1.5 1.3 2.1c.6.6 1.2 1.1 2 1.4.8.4 1.7.5 2.7.5.8 0 1.7-.1 2.5-.5.9-.2 1.7-.6 2.5-1.1l1 2.9zM267.7 19.2v16.2h-3.1V19.2h-5.7v-3h14.6v3h-5.8zM276.4 35.3V16.2h3.1v19.1h-3.1zM301.6 25.7c0 1.4-.2 2.7-.7 3.9-.4 1.2-1.1 2.3-1.9 3.1-.8.8-1.8 1.5-2.9 2-1.1.5-2.4.7-3.7.7s-2.5-.2-3.6-.7c-1.1-.5-2-1.2-2.9-2-.8-.8-1.5-1.9-1.9-3.1s-.7-2.5-.7-3.9.2-2.7.7-3.9c.4-1.2 1.1-2.3 1.9-3.1.8-.8 1.8-1.5 2.9-2 1.1-.5 2.4-.7 3.6-.7 1.3 0 2.6.2 3.6.7 1 .5 2 1.2 2.9 2 .9.8 1.5 1.9 1.9 3.1s.8 2.5.8 3.9zm-3.4 0c0-1-.1-1.9-.4-2.7-.3-.8-.7-1.5-1.2-2.3-.6-.6-1.1-1.1-1.8-1.4-.7-.4-1.5-.5-2.4-.5s-1.7.1-2.4.5-1.3.8-1.8 1.4c-.6.6-.9 1.4-1.2 2.3s-.4 1.8-.4 2.7c0 1 .1 1.9.4 2.7s.7 1.5 1.2 2.3c.6.6 1.1 1.1 1.8 1.4.7.4 1.5.6 2.4.6s1.7-.1 2.4-.6c.7-.4 1.3-.8 1.8-1.4.6-.6.9-1.3 1.2-2.3.3-.7.4-1.6.4-2.7zM319.5 35.7l-11.4-12.6v12.2H305V16l.4-.1 11.2 12.5V16.2h3.1v19.4l-.2.1zM334.4 29.9c0 .7-.1 1.5-.4 2.1-.2.7-.7 1.3-1.2 1.8-.6.5-1.1 1-1.9 1.2s-1.6.5-2.5.5c-1 0-2-.1-3-.5s-1.9-.8-2.7-1.3l1-3c.7.6 1.5 1 2.4 1.3.8.4 1.6.5 2.4.5.4 0 .9-.1 1.2-.2.3-.1.7-.4.9-.6.2-.2.3-.5.4-.8.1-.4.1-.6.1-1s0-.6-.1-1c-.1-.2-.2-.6-.4-.8-.2-.2-.6-.6-1-.8-.4-.2-1-.6-1.8-.8-1.6-.7-2.7-1.5-3.4-2.4s-1-1.9-1-3.1c0-.7.1-1.4.4-2 .2-.6.7-1.2 1.1-1.7.6-.5 1.1-1 1.9-1.2.8-.2 1.6-.5 2.5-.5s1.7.1 2.6.4c.9.2 1.5.6 2 1l-1 2.9c-.2-.1-.6-.4-.8-.5-.3-.1-.6-.4-.9-.5-.3-.1-.7-.2-1-.4-.3-.1-.7-.1-.9-.1-1 0-1.7.2-2.1.7s-.7 1.1-.7 1.7c0 .6.2 1.2.7 1.7.4.5 1.2 1 2.4 1.4.9.5 1.7.8 2.2 1.2s1 .8 1.5 1.3c.3.5.6 1 .8 1.4.3.9.3 1.5.3 2.1z"/></svg>